<svg width="40" height="40" viewBox="0 0 40 40" fill="none" xmlns="http://www.w3.org/2000/svg">
<path d="M40 20C40 8.95431 31.0457 0 20 0C8.95431 0 0 8.95431 0 20C0 31.0457 8.95431 40 20 40C31.0457 40 40 31.0457 40 20Z" fill="white"/>
<path d="M30.0717 14.3848H9.30656C8.81318 14.3848 8.41321 14.7847 8.41321 15.2781V30.3542C8.41321 30.8476 8.81318 31.2476 9.30656 31.2476H30.0717C30.5651 31.2476 30.9651 30.8476 30.9651 30.3542V15.2781C30.9651 14.7847 30.5651 14.3848 30.0717 14.3848Z" fill="#4989F5"/>
<path d="M29.8108 14.248H9.54199C8.91412 14.248 8.42554 19.1072 8.42554 19.7351L19.5254 31.2375H29.8108C30.4406 31.2358 30.9508 30.7257 30.9525 30.0959V15.3894C30.9506 14.7597 30.4405 14.2498 29.8108 14.248V14.248Z" fill="url(#paint0_linear_4210_20135)"/>
<path d="M13.5621 17.2068H20.0055V8.75H14.5269L13.5621 17.2068Z" fill="#3C4BA6"/>
<path d="M26.4493 17.2068H20.0059V8.75H25.4844L26.4493 17.2068ZM30.965 10.3531L30.973 10.3819C30.971 10.3717 30.9671 10.3623 30.965 10.3531Z" fill="#7BABF7"/>
<path d="M30.9735 10.3819L30.9655 10.3531C30.7612 9.41767 29.9333 8.75061 28.9758 8.75H25.485L26.4491 17.2071H32.8925L30.9735 10.3819Z" fill="#3F51B5"/>
<path d="M9.04773 10.3516L9.03943 10.3815C9.04144 10.3709 9.04546 10.3611 9.04773 10.3516Z" fill="#7BABF7"/>
<path d="M9.03871 10.3819L9.0467 10.3531C9.25098 9.41767 10.0789 8.75061 11.0364 8.75H14.5275L13.5619 17.2071H7.11853L9.03871 10.3819Z" fill="#7BABF7"/>
<path fill-rule="evenodd" clip-rule="evenodd" d="M13.5619 17.207C13.5619 18.9835 12.1195 20.4236 10.3402 20.4236C8.56094 20.4236 7.11853 18.9835 7.11853 17.207H13.5619Z" fill="#709BE0"/>
<path fill-rule="evenodd" clip-rule="evenodd" d="M20.0055 17.207C20.0055 18.9835 18.5631 20.4236 16.7838 20.4236C15.0045 20.4236 13.5621 18.9835 13.5621 17.207H20.0055Z" fill="#3C4BA6"/>
<path fill-rule="evenodd" clip-rule="evenodd" d="M26.4485 17.207C26.4485 18.9835 25.0061 20.4236 23.2268 20.4236C21.4475 20.4236 20.0051 18.9835 20.0051 17.207H26.4485Z" fill="#709BE0"/>
<path fill-rule="evenodd" clip-rule="evenodd" d="M32.8922 17.207C32.8922 18.9835 31.4498 20.4236 29.6706 20.4236C27.8913 20.4236 26.4489 18.9835 26.4489 17.207H32.8922Z" fill="#3C4BA6"/>
<path d="M29.6722 25.9348C29.6608 25.7814 29.6419 25.6414 29.6151 25.4626H26.1027C26.1027 25.9539 26.1027 26.49 26.1007 26.9814H28.1355C28.0923 27.2105 28.0042 27.4288 27.8764 27.6237C27.7486 27.8186 27.5835 27.9863 27.3906 28.1173C27.3906 28.1173 27.3906 28.1088 27.3892 28.1086C27.1401 28.2721 26.8596 28.3816 26.5656 28.43C26.2709 28.4839 25.9687 28.4826 25.6744 28.4261C25.3756 28.3643 25.0927 28.2417 24.8433 28.0659C24.4752 27.8049 24.1912 27.442 24.0263 27.0219C24.0137 26.9892 24.002 26.9563 23.9902 26.9228V26.9192L23.9933 26.9168C23.8332 26.4469 23.8328 25.9374 23.9921 25.4672C24.1043 25.1375 24.289 24.837 24.5325 24.5879C25.1039 23.9969 25.9576 23.7746 26.7446 24.0119C27.0464 24.1045 27.3221 24.2668 27.5495 24.4857L28.236 23.7992C28.3571 23.6769 28.4829 23.5585 28.5994 23.432C28.2513 23.1073 27.8427 22.8543 27.3969 22.6874C26.5856 22.3932 25.6981 22.3854 24.8818 22.6653C24.8534 22.675 24.8251 22.6851 24.797 22.6956C23.9164 23.0267 23.1919 23.676 22.7666 24.5153C22.6165 24.8123 22.5071 25.1283 22.4416 25.4547C22.0527 27.387 23.2318 29.2891 25.1354 29.8003C25.7577 29.967 26.4193 29.9629 27.0464 29.8204C27.6162 29.6918 28.1431 29.418 28.5759 29.0257C29.0274 28.6102 29.351 28.0567 29.5206 27.4688C29.6624 26.9706 29.7137 26.4511 29.6722 25.9348Z" fill="white"/>
<defs>
<linearGradient id="paint0_linear_4210_20135" x1="8.42554" y1="22.7426" x2="30.9523" y2="22.7426" gradientUnits="userSpaceOnUse">
<stop offset="0.03" stop-color="#4079D8"/>
<stop offset="1" stop-color="#4989F5"/>
</linearGradient>
</defs>
</svg>
