<svg width="40" height="40" viewBox="0 0 40 40" fill="none" xmlns="http://www.w3.org/2000/svg">
<rect width="40" height="40" rx="12" fill="#FFD86F"/>
<path d="M19.9998 10C14.4798 10 10 14.4798 10 19.9998C10 25.5198 14.4798 30.0002 19.9998 30.0002C25.5198 30.0002 30.0002 25.5198 30.0002 19.9998C30.0002 14.4798 25.5198 10 19.9998 10ZM19.9998 16.75C19.5903 16.75 19.2498 16.4103 19.2498 16C19.2498 15.5897 19.5903 15.25 19.9998 15.25C21.2592 15.2512 22.4667 15.752 23.3573 16.6424C24.2479 17.5329 24.7489 18.7403 24.7502 19.9998C24.7491 21.2593 24.2482 22.4669 23.3575 23.3575C22.4669 24.2482 21.2593 24.7491 19.9998 24.7502C19.5903 24.7502 19.2498 24.4097 19.2498 24.0002C19.2498 23.59 19.5903 23.2502 19.9998 23.2502C20.8613 23.2487 21.6872 22.9057 22.2964 22.2964C22.9057 21.6872 23.2487 20.8613 23.2502 19.9998C23.2485 19.1383 22.9054 18.3126 22.2962 17.7035C21.687 17.0945 20.8612 16.7516 19.9998 16.75ZM19.9998 27.7502C15.73 27.7502 12.25 24.2703 12.25 19.9998C12.25 19.5903 12.5897 19.2498 13 19.2498C13.4102 19.2498 13.75 19.5903 13.75 19.9998C13.75 23.4497 16.5498 26.2502 19.9998 26.2502C23.4497 26.2502 26.2502 23.4497 26.2502 19.9998C26.2502 16.5498 23.4497 13.75 19.9998 13.75C19.5903 13.75 19.2498 13.4102 19.2498 13C19.2498 12.5897 19.5903 12.25 19.9998 12.25C24.2703 12.25 27.7502 15.73 27.7502 19.9998C27.7502 24.2703 24.2703 27.7502 19.9998 27.7502Z" fill="white"/>
</svg>
