<svg width="40" height="40" viewBox="0 0 40 40" fill="none" xmlns="http://www.w3.org/2000/svg">
<path d="M20 37.5C29.665 37.5 37.5 29.665 37.5 20C37.5 10.335 29.665 2.5 20 2.5C10.335 2.5 2.5 10.335 2.5 20C2.5 29.665 10.335 37.5 20 37.5Z" fill="white"/>
<path d="M14.9719 11.9919L26.9721 27.896H25.1118L12.9781 11.9919H14.9719Z" fill="black"/>
<path fill-rule="evenodd" clip-rule="evenodd" d="M19.9991 2.5C29.6641 2.5 37.5 10.3359 37.5 20.0009C37.4999 29.6658 29.6641 37.5 19.9991 37.5C10.3345 37.4996 2.5001 29.6656 2.5 20.0009C2.5 10.3361 10.3344 2.50039 19.9991 2.5ZM9.06172 10.0853L17.3324 20.9266L9.4943 29.9093H12.8499L18.9007 22.9773L24.1861 29.9093H30.9365L22.3151 18.4824L29.6423 10.0853H26.2885L20.7628 16.4192L15.983 10.0853H9.06172Z" fill="black"/>
</svg>
